<?xml version="1.0" encoding="utf-8"?>
<!-- Generator: Adobe Illustrator 17.0.0, SVG Export Plug-In . SVG Version: 6.00 Build 0)  -->
<!DOCTYPE svg PUBLIC "-//W3C//DTD SVG 1.1//EN" "http://www.w3.org/Graphics/SVG/1.1/DTD/svg11.dtd">
<svg version="1.1" id="Layer_1" xmlns="http://www.w3.org/2000/svg" xmlns:xlink="http://www.w3.org/1999/xlink" x="0px" y="0px"
	 width="100%" height="100%" viewBox="0 0 141.271 13.473" enable-background="new 0 0 141.271 13.473"
	 xml:space="preserve">
<g>
	<g>
		<g>
			<path fill="#43474F" d="M71.549,1.895v8.524h-0.622V1.895h-2.628V1.316h5.878v0.578H71.549z"/>
			<path fill="#43474F" d="M74.085,7.194c0,0.893,0.206,1.591,0.619,2.095c0.412,0.504,0.979,0.756,1.698,0.756
				c0.728,0,1.439-0.27,2.133-0.807V9.86c-0.673,0.479-1.424,0.718-2.253,0.718c-0.838,0-1.515-0.301-2.031-0.902
				c-0.516-0.601-0.774-1.449-0.774-2.545c0-0.948,0.27-1.747,0.81-2.396c0.539-0.649,1.241-0.975,2.104-0.975
				c0.808,0,1.428,0.284,1.86,0.852c0.432,0.566,0.647,1.341,0.647,2.322v0.261H74.085z M78.287,6.661
				c-0.025-0.749-0.205-1.331-0.54-1.745c-0.334-0.415-0.795-0.623-1.384-0.623c-0.609,0-1.114,0.205-1.514,0.613
				c-0.399,0.408-0.646,0.993-0.739,1.755H78.287z"/>
			<path fill="#43474F" d="M85.106,10.133c-0.482,0.297-1.058,0.445-1.727,0.445c-0.884,0-1.598-0.304-2.139-0.911
				s-0.813-1.402-0.813-2.384c0-1.032,0.305-1.878,0.914-2.536s1.392-0.987,2.349-0.987c0.495,0,0.976,0.102,1.441,0.305v0.66
				c-0.465-0.287-0.976-0.432-1.53-0.432c-0.762,0-1.379,0.274-1.854,0.822s-0.711,1.258-0.711,2.13c0,0.842,0.217,1.52,0.65,2.031
				c0.434,0.512,1.006,0.769,1.717,0.769c0.652,0,1.219-0.174,1.701-0.521V10.133z"/>
			<path fill="#43474F" d="M91.476,10.419V6.522c0-0.771-0.14-1.334-0.419-1.691s-0.715-0.537-1.308-0.537
				c-0.559,0-1.049,0.219-1.473,0.654s-0.635,1.061-0.635,1.873v3.599h-0.584V0.796h0.584v4.291h0.025
				c0.512-0.885,1.257-1.327,2.234-1.327c0.703,0,1.238,0.227,1.606,0.68s0.552,1.103,0.552,1.949v4.03H91.476z"/>
			<path fill="#43474F" d="M98.823,10.419V6.636c0-1.562-0.563-2.343-1.688-2.343c-0.626,0-1.141,0.23-1.542,0.689
				s-0.603,1.027-0.603,1.704v3.732h-0.584v-6.5h0.584V5.1h0.025c0.474-0.893,1.214-1.34,2.222-1.34c0.703,0,1.24,0.234,1.612,0.702
				s0.559,1.135,0.559,2.003v3.954H98.823z"/>
			<path fill="#43474F" d="M104.361,10.578c-0.948,0-1.698-0.313-2.25-0.937c-0.552-0.624-0.828-1.436-0.828-2.435
				c0-1.079,0.289-1.924,0.866-2.533c0.578-0.609,1.338-0.914,2.282-0.914c0.927,0,1.659,0.303,2.196,0.908s0.806,1.443,0.806,2.514
				c0,1.012-0.274,1.83-0.822,2.457C106.064,10.265,105.314,10.578,104.361,10.578z M104.406,4.293
				c-0.766,0-1.376,0.259-1.831,0.775c-0.455,0.516-0.683,1.233-0.683,2.151c0,0.851,0.222,1.534,0.667,2.05
				c0.444,0.517,1.052,0.775,1.822,0.775c0.783,0,1.386-0.254,1.809-0.762s0.635-1.213,0.635-2.114c0-0.927-0.21-1.638-0.631-2.133
				C105.772,4.541,105.176,4.293,104.406,4.293z"/>
			<path fill="#43474F" d="M109.436,10.419V0.796h0.584v9.623H109.436z"/>
			<path fill="#43474F" d="M115.101,10.578c-0.948,0-1.698-0.313-2.25-0.937c-0.552-0.624-0.828-1.436-0.828-2.435
				c0-1.079,0.289-1.924,0.866-2.533c0.578-0.609,1.338-0.914,2.282-0.914c0.927,0,1.659,0.303,2.196,0.908s0.806,1.443,0.806,2.514
				c0,1.012-0.274,1.83-0.822,2.457C116.803,10.265,116.053,10.578,115.101,10.578z M115.145,4.293
				c-0.766,0-1.376,0.259-1.831,0.775c-0.455,0.516-0.683,1.233-0.683,2.151c0,0.851,0.222,1.534,0.667,2.05
				c0.444,0.517,1.052,0.775,1.822,0.775c0.783,0,1.386-0.254,1.809-0.762s0.635-1.213,0.635-2.114c0-0.927-0.21-1.638-0.631-2.133
				C116.511,4.541,115.915,4.293,115.145,4.293z"/>
			<path fill="#43474F" d="M125.374,9.937c0,1.223-0.267,2.118-0.8,2.685c-0.533,0.567-1.363,0.852-2.488,0.852
				c-0.626,0-1.271-0.166-1.936-0.496v-0.609c0.686,0.381,1.335,0.572,1.949,0.572c1.794,0,2.691-0.948,2.691-2.844V9.251h-0.025
				c-0.512,0.885-1.293,1.327-2.342,1.327c-0.8,0-1.453-0.29-1.958-0.87c-0.506-0.58-0.759-1.388-0.759-2.425
				s0.273-1.883,0.819-2.539s1.265-0.984,2.158-0.984c0.957,0,1.65,0.396,2.082,1.188h0.025V3.919h0.584V9.937z M124.79,6.414
				c0-0.576-0.194-1.073-0.581-1.492c-0.388-0.419-0.892-0.629-1.514-0.629c-0.715,0-1.291,0.27-1.727,0.807
				s-0.654,1.248-0.654,2.133c0,0.889,0.2,1.579,0.6,2.072c0.4,0.493,0.928,0.74,1.584,0.74c0.698,0,1.255-0.227,1.669-0.68
				s0.622-1.007,0.622-1.663V6.414z"/>
			<path fill="#43474F" d="M128.131,2.281c-0.127,0-0.239-0.047-0.336-0.14s-0.146-0.212-0.146-0.355c0-0.14,0.05-0.253,0.149-0.34
				c0.099-0.087,0.21-0.13,0.333-0.13c0.131,0,0.247,0.042,0.346,0.127c0.1,0.085,0.149,0.199,0.149,0.343
				c0,0.136-0.049,0.252-0.146,0.349C128.383,2.232,128.267,2.281,128.131,2.281z M127.846,10.419v-6.5h0.584v6.5H127.846z"/>
			<path fill="#43474F" d="M131.042,7.194c0,0.893,0.206,1.591,0.619,2.095c0.412,0.504,0.979,0.756,1.698,0.756
				c0.728,0,1.439-0.27,2.133-0.807V9.86c-0.673,0.479-1.424,0.718-2.253,0.718c-0.838,0-1.515-0.301-2.031-0.902
				c-0.516-0.601-0.774-1.449-0.774-2.545c0-0.948,0.27-1.747,0.81-2.396c0.539-0.649,1.241-0.975,2.104-0.975
				c0.808,0,1.428,0.284,1.86,0.852c0.432,0.566,0.647,1.341,0.647,2.322v0.261H131.042z M135.244,6.661
				c-0.025-0.749-0.205-1.331-0.54-1.745c-0.334-0.415-0.795-0.623-1.384-0.623c-0.609,0-1.114,0.205-1.514,0.613
				c-0.399,0.408-0.646,0.993-0.739,1.755H135.244z"/>
			<path fill="#43474F" d="M137.519,10.133V9.429c0.22,0.19,0.487,0.341,0.8,0.45c0.313,0.11,0.584,0.166,0.813,0.166
				c1.02,0,1.53-0.417,1.53-1.251c0-0.288-0.112-0.533-0.336-0.736s-0.588-0.413-1.092-0.628c-0.622-0.271-1.059-0.552-1.311-0.842
				c-0.252-0.29-0.378-0.642-0.378-1.057c0-0.529,0.202-0.956,0.606-1.282c0.404-0.326,0.902-0.489,1.495-0.489
				c0.559,0,1.037,0.115,1.435,0.344v0.66c-0.482-0.313-0.982-0.471-1.498-0.471c-0.427,0-0.772,0.111-1.035,0.334
				c-0.262,0.222-0.394,0.511-0.394,0.866c0,0.309,0.083,0.56,0.248,0.752s0.529,0.414,1.092,0.663
				c0.677,0.305,1.143,0.588,1.396,0.848c0.254,0.261,0.381,0.606,0.381,1.038c0,0.517-0.194,0.942-0.581,1.279
				c-0.388,0.336-0.922,0.505-1.603,0.505C138.46,10.578,137.938,10.43,137.519,10.133z"/>
		</g>
	</g>
	<path fill="#297BC0" d="M5.481,0C2.454,0,0,2.454,0,5.482c0,1.628,0.71,3.089,1.837,4.093c0.047-0.874,0.334-1.591,0.87-2.149
		C3.292,6.816,4.081,6.51,5.071,6.51h2.203c0.396,0,0.594,0.198,0.594,0.594c0,0.182-0.062,0.334-0.186,0.458
		C7.558,7.686,7.405,7.748,7.224,7.748H5.071c-0.578,0-1.057,0.202-1.436,0.607C3.255,8.759,3.065,9.25,3.065,9.827v0.575
		c0.729,0.359,1.549,0.561,2.416,0.561c3.027,0,5.482-2.454,5.482-5.481S8.509,0,5.481,0z M8.437,3.062
		C8.239,3.161,8.041,3.211,7.843,3.211H5.071c-0.281,0-0.545,0.058-0.792,0.173C4.031,3.5,3.812,3.648,3.622,3.83
		c-0.19,0.182-0.339,0.4-0.446,0.656c-0.108,0.256-0.145,0.516-0.111,0.78v0.371c0,0.017-0.008,0.058-0.026,0.124
		c-0.017,0.066-0.051,0.136-0.1,0.211C2.889,6.045,2.825,6.115,2.75,6.181c-0.075,0.066-0.173,0.1-0.291,0.1
		c-0.421,0-0.632-0.239-0.632-0.718V5.339V5.24c0-0.99,0.293-1.79,0.879-2.401c0.585-0.611,1.374-0.916,2.364-0.916h2.822
		c0.23,0,0.429,0.038,0.594,0.112c0.164,0.074,0.247,0.244,0.247,0.507C8.734,2.79,8.635,2.963,8.437,3.062z"/>
	<g>
		<g>
			<path fill="#43474F" d="M24.399,2.423c-0.692,0-1.037-0.222-1.037-0.668V1.051c0-0.468,0.346-0.703,1.037-0.703
				c0.691,0,1.037,0.235,1.037,0.703v0.704C25.436,2.201,25.09,2.423,24.399,2.423z M24.399,10.419
				c-0.692,0-1.037-0.222-1.037-0.668V3.678c0-0.481,0.346-0.721,1.037-0.721c0.691,0,1.037,0.24,1.037,0.721v6.073
				C25.436,10.196,25.09,10.419,24.399,10.419z"/>
			<path fill="#43474F" d="M34.718,9.926c-0.586,0.328-1.471,0.492-2.654,0.492c-1.172,0-2.057-0.164-2.654-0.492
				c-0.773-0.398-1.16-1.149-1.16-2.251v-2.76c0-1.113,0.381-1.881,1.143-2.303c0.562-0.328,1.453-0.492,2.672-0.492
				c0.692,0,1.26,0.053,1.705,0.159V1.055c0-0.468,0.352-0.703,1.055-0.703c0.692,0,1.037,0.235,1.037,0.703v6.621
				C35.861,8.766,35.48,9.516,34.718,9.926z M33.769,4.916c0-0.949-0.117-1.541-0.352-1.776c-0.211-0.199-0.662-0.298-1.354-0.298
				c-0.715,0-1.178,0.1-1.388,0.298c-0.235,0.258-0.352,0.85-0.352,1.776v2.76c0,0.797,0.088,1.331,0.264,1.6
				c0.117,0.164,0.299,0.284,0.545,0.361s0.556,0.114,0.932,0.114c0.762,0,1.254-0.164,1.477-0.492
				c0.094-0.117,0.155-0.308,0.184-0.571c0.029-0.264,0.044-0.601,0.044-1.011V4.916z"/>
			<path fill="#43474F" d="M45.143,9.926c-0.598,0.328-1.482,0.492-2.654,0.492c-1.219,0-2.109-0.164-2.672-0.492
				c-0.762-0.41-1.143-1.171-1.143-2.286v-2.76c0-1.043,0.346-1.787,1.037-2.233c0.328-0.211,0.738-0.372,1.23-0.483
				c0.493-0.111,1.002-0.167,1.529-0.167c0.527,0,1.04,0.056,1.538,0.167s0.911,0.272,1.239,0.483
				c0.692,0.457,1.037,1.202,1.037,2.233c0,1.149-1.266,1.723-3.797,1.723c-1.16,0-1.74,0.346-1.74,1.037
				c0,0.41,0.024,0.75,0.07,1.02c0.047,0.27,0.112,0.468,0.194,0.598c0.222,0.305,0.714,0.457,1.476,0.457s1.254-0.159,1.477-0.475
				c0.094-0.128,0.155-0.325,0.184-0.589c0.029-0.264,0.044-0.601,0.044-1.011c0-0.457,0.352-0.685,1.055-0.685
				c0.692,0,1.037,0.228,1.037,0.685C46.286,8.743,45.905,9.505,45.143,9.926z M44.15,3.853c-0.029-0.263-0.091-0.454-0.184-0.571
				c-0.105-0.163-0.284-0.284-0.536-0.36c-0.252-0.077-0.566-0.114-0.941-0.114c-0.715,0-1.178,0.105-1.388,0.316
				c-0.235,0.235-0.352,0.82-0.352,1.758v1.143c0.235-0.035,0.495-0.059,0.782-0.07c0.287-0.011,0.607-0.018,0.958-0.018
				c1.137,0,1.705-0.352,1.705-1.055C44.194,4.459,44.179,4.117,44.15,3.853z"/>
			<path fill="#43474F" d="M55.673,10.401c-0.703,0-1.055-0.234-1.055-0.703V4.916c0-0.949-0.117-1.541-0.352-1.776
				c-0.211-0.199-0.662-0.298-1.354-0.298c-0.715,0-1.178,0.1-1.388,0.298c-0.235,0.258-0.352,0.85-0.352,1.776v4.835
				c0,0.446-0.346,0.668-1.037,0.668c-0.692,0-1.037-0.222-1.037-0.668V4.916c0-1.113,0.381-1.881,1.143-2.303
				c0.527-0.304,1.418-0.457,2.672-0.457c1.277,0,2.197,0.17,2.76,0.51c0.692,0.41,1.037,1.16,1.037,2.25v4.781
				C56.711,10.167,56.365,10.401,55.673,10.401z"/>
			<path fill="#43474F" d="M21.011,5.453h-2.262c-0.738,0-1.201,0.105-1.388,0.316c-0.235,0.258-0.352,0.572-0.352,1.497v2.468
				c0,0.457-0.346,0.685-1.037,0.685c-0.692,0-1.037-0.228-1.037-0.685V7.266c0-1.125,0.381-1.62,1.143-2.041
				c0.527-0.305,1.418-0.457,2.672-0.457h2.262c0.234,0,0.352,0.123,0.352,0.369C21.363,5.347,21.246,5.453,21.011,5.453z"/>
			<path fill="#43474F" d="M21.011,1.334h-2.262c-0.738,0-1.201,0.105-1.388,0.316c-0.235,0.258-0.352,0.572-0.352,1.497v0.796
				c0,0.457-0.346,0.685-1.037,0.685c-0.692,0-1.037-0.228-1.037-0.685V3.147c0-1.125,0.381-1.62,1.143-2.041
				c0.527-0.305,1.418-0.457,2.672-0.457h2.262c0.234,0,0.352,0.123,0.352,0.369C21.363,1.229,21.246,1.334,21.011,1.334z"/>
			<path fill="#43474F" d="M63.533,3.911c0.143-0.119,0.127-0.294,0.127-0.361c0-0.38-0.314-0.687-0.711-0.713h-4.09
				c-0.237,0-0.355-0.117-0.355-0.351c0-0.222,0.118-0.334,0.355-0.334h4.999c0.925,0.001,1.674,0.706,1.674,1.575
				c0,0.761-0.689,1.172-1.209,1.659c-0.028,0.026-3.434,2.938-3.559,3.051c-0.135,0.122-0.211,0.182-0.279,0.303
				c-0.047,0.083-0.066,0.186-0.066,0.28c0,0.38,0.271,0.687,0.668,0.713h4.09c0.237,0,0.355,0.117,0.355,0.351
				c0,0.222-0.118,0.334-0.355,0.334h-4.999c-0.925-0.001-1.674-0.706-1.674-1.575c0-0.912,0.804-1.281,1.429-1.827L63.533,3.911z"
				/>
		</g>
	</g>
</g>
</svg>
